<svg xmlns="http://www.w3.org/2000/svg" viewBox="0 0 629 477.6"><style>.st0{display:none}.st1{display:inline}.st2{fill:none;stroke:#373737;stroke-miterlimit:10}</style><g id="BG" class="st0"><path class="st1" d="M-403.1-138h1366v768h-1366z"/></g><g id="robot"><path id="nuca_x5F_robot" class="st2" d="M613.6 155.5v257"/><path id="cabeza_x5F_robot_x5F_superior2" class="st2" d="M575.5 59.3C548.2 28.7 508.4 9.5 464.1 9.5c-36.3 0-69.6 13-95.5 34.5"/><path id="cuello_x5F_robot4" class="st2" d="M420.6 412.5v-36"/><path id="nariz_x5F_robot2" class="st2" d="M343.3 271c0-7.9-6.4-14.3-14.3-14.3s-14.3 6.4-14.3 14.3"/><path id="ojo_x5F_robot" class="st2" d="M377.6 198c-21.4 0-38.8-21.2-38.8-21.2s17.3-21.2 38.8-21.2 38.8 21.2 38.8 21.2S399 198 377.6 198z"/><path id="ceja_x5F_robot" class="st2" d="M337 159c0-22.1 17.9-39.9 39.9-39.9 22.1 0 39.9 17.9 39.9 39.9v17.8"/><circle id="iris_robot" class="st2" cx="377.6" cy="176.8" r="21.2"/><circle id="moflete_x5F_robot" class="st2" cx="454.4" cy="261.2" r="47.3"/><path id="frente_x5F_robot" class="st2" d="M368.6 44c-33 27.4-54 68.8-54 115"/><path id="cabeza_x5F_inferior_x5F_robot1" class="st2" d="M484.1 307c73.6-9.5 129.5-72.7 129.5-148 0-38.3-14.4-73.2-38.1-99.7"/><path id="lobulo_x5F_robot4" class="st2" d="M591.7 81H536v108h-80.5"/><path id="maxilar_x5F_robot_x5F_superior" class="st2" d="M314.6 309.8h59.6l35.6-65"/><path id="cable_x5F_tubo_x5F_garganta1_1_" class="st2" d="M534.9 457.7v-29.6"/><path id="cable_x5F_tubo_x5F_garganta1" class="st2" d="M506 471.6v-29.7"/><path id="garganta_x5F_robot3_1_" class="st2" d="M525.2 431.7h-8.7"/><path id="garganta_x5F_robot3" class="st2" d="M525.2 442.9h-8.7"/><circle id="boca_x5F_tubo_x5F_garganta2" class="st2" cx="534.9" cy="437.7" r="10.8"/><circle id="boca_x5F_tubo_x5F_garganta1" class="st2" cx="505.7" cy="451.5" r="10.8"/><path id="tubo_x5F_garganta1_3_" class="st2" d="M524.3 439.7V395"/><path id="tubo_x5F_garganta1_2_" class="st2" d="M545.6 396v43.7"/><path id="tubo_x5F_garganta1_1_" class="st2" d="M516.3 396.5v57"/><path id="tubo_x5F_garganta1" class="st2" d="M495.1 453.5v-58"/><path id="tubo6" class="st2" d="M523.9 296.2V326"/><path id="tubo5" class="st2" d="M543.9 284.8V326"/><path id="tubo4" class="st2" d="M516.5 299v27"/><path id="tubo3" class="st2" d="M494.9 305.4V326"/><path id="garganta_x5F_robot2" class="st2" d="M494.3 431.7H449c-10 0-18.1-8.1-18.1-18.1 0-10 8.1-18.1 18.1-18.1h137.3c10 0 18.1 8.1 18.1 18.1 0 10-8.1 18.1-18.1 18.1h-40"/><path id="garganta_x5F_robot1" class="st2" d="M494.1 442.5h-45c-15.7 0-28.5-12.8-28.5-28.5s12.8-28.5 28.5-28.5h136c15.7 0 28.5 12.8 28.5 28.5s-12.8 28.5-28.5 28.5h-39.5"/><path id="cuello_x5F_robot3" class="st2" d="M454.2 366h130.9c15.7 0 28.5 12.8 28.5 28.5"/><path id="cuello_x5F_robot2" class="st2" d="M464.1 345.3h121c15.7 0 28.5 12.8 28.5 28.5"/><path id="cuello_x5F_robot1" class="st2" d="M474.2 326h110.9c15.7 0 28.5 12.8 28.5 28.5"/><path id="labio_x5F_robot1" class="st2" d="M341.1 309.7c-5.3-9.1-15.2-15.3-26.5-15.3"/><path id="lobulo_x5F_robot3" class="st2" d="M484.1 212.5v12"/><path id="tornillo5" transform="rotate(-45.001 579.945 214.006)" class="st2" d="M574.7 208.8h10.5v10.5h-10.5z"/><path id="tornillo4" transform="rotate(-45.001 555.816 244.826)" class="st2" d="M550.6 239.6h10.5v10.5h-10.5z"/><path id="tornillo3" transform="rotate(-45.001 526.803 267.147)" class="st2" d="M521.6 261.9h10.5v10.5h-10.5z"/><path id="cuello_x5F_robot-diagonal" class="st2" d="M563.2 271l50.5 50.5"/><path id="lobulo_x5F_robot2" class="st2" d="M484.1 212.5c0-38.7 31.3-70 70-70H612.7"/><path id="tubo2" class="st2" d="M413.6 58.2h101.2v62.3"/><path id="nariz_x5F_robot1" class="st2" d="M314.6 271h29.2l-29.2-90.7s-.1-.2-.1-.3c-.1.2-.1.3-.1.3"/><path id="tubo1" class="st2" d="M436.5 77.2h58.3v43.3"/><path id="tornillo2" transform="rotate(-45.001 551.34 125.711)" class="st2" d="M546.1 120.5h10.5V131h-10.5z"/><path id="tornillo1" transform="rotate(-45.001 551.34 101.5)" class="st2" d="M546.1 96.2h10.5v10.5h-10.5z"/><path id="lobulo_x5F_robot1" class="st2" d="M453.7 120.5H536"/></g><g id="face_center"><path id="maxilar_x5F_robot_2_" class="st2" d="M498 279.7l-49.6 97H335.1c-11.3 0-20.4-9.1-20.4-20.4"/><path id="maxilar_x5F_human_2_" class="st2" d="M184 385.5c-10.5 0-19-8.5-19-19s8.5-19 19-19c0 0 18.6-2.1 45.2 18 42.2 31.8 85.3-2.1 85.3-20.1"/><path id="face_x5F_center_2_" class="st2" d="M314.6 356.3V159.2"/></g><g id="face_centre_right"><path id="face_x5F_right" class="st2" d="M409.8 377.8c28.1-25.5 45.7-62.3 45.7-103.2V134c0-49-39.3-88.8-88-89.6"/></g><g id="face_center_left"><path id="face_x5F_left_2_" class="st2" d="M196.4 349c-13.6-21.5-21.5-47-21.5-74.4V134c0-48.1 37.9-87.4 85.5-89.6"/></g><g id="human"><path id="gota" class="st2" d="M109.8 410.7s17 25.1 17 34.5-7.6 17-17 17-17-7.6-17-17 17-34.5 17-34.5"/><path id="nariz4" class="st2" d="M300 256.7c7.9 0 14.3 6.4 14.3 14.3"/><path id="nariz3" class="st2" d="M285.6 271c0-7.9 6.4-14.3 14.3-14.3"/><path id="ojo_human" class="st2" d="M289.2 176.8S271.9 198 250.5 198s-38.8-21.2-38.8-21.2 17.3-21.2 38.8-21.2 38.7 21.2 38.7 21.2"/><path id="labio_human" class="st2" d="M288.1 309.7c5.3-9.1 15.2-15.3 26.5-15.3"/><path id="boca" class="st2" d="M314.6 309.8h-42.9"/><path id="garganta2" class="st2" d="M208.4 414c0-15.7-12.8-28.5-28.5-28.5h-136c-15.7 0-28.5 12.8-28.5 28.5s12.8 28.5 28.5 28.5h49.2"/><path id="garganta1" class="st2" d="M126.4 442.5h53.5c15.7 0 28.5-12.8 28.5-28.5"/><path id="nariz2" class="st2" d="M298.6 229.5l15.8-49.2"/><path id="rariz1" class="st2" d="M314.6 271h-29.3l13.3-41.5"/><path id="nuca" class="st2" d="M15.4 155.5v257"/><path id="moflete2" class="st2" d="M127.7 261.2c0-26.1 21.2-47.3 47.3-47.3s47.3 21.2 47.3 47.3"/><path id="moflete1" class="st2" d="M222.2 261.2c0 26.1-21.2 47.3-47.3 47.3s-47.3-21.2-47.3-47.3"/><path id="ceja3" class="st2" d="M211.2 159v17.8"/><path id="ceja2" class="st2" d="M251.1 119.1c-22.1 0-39.9 17.9-39.9 39.9"/><path id="ceja1" class="st2" d="M291 159c0-22.1-17.9-39.9-39.9-39.9"/><path id="cabeza" class="st2" d="M51.7 256.7c-22.6-26.2-36.3-60.3-36.3-97.7 0-82.6 67-149.5 149.5-149.5S314.4 76.4 314.4 159"/><path id="pelo8" class="st2" d="M80.8 282.6c-10.8-7.4-20.6-16.1-29.1-25.9"/><path id="cuello2" class="st2" d="M108 329.3c14.2-13.8 33.5-22.4 54.9-22.4"/><path id="cuello1" class="st2" d="M84.4 385.5c0-22 9-41.9 23.6-56.2"/><path id="agujero_x5F_cuello2" class="st2" d="M109.8 405.9H92.7c-4.4 0-8.1 3.6-8.1 8.1 0 4.4 3.6 8.1 8.1 8.1h9.8"/><path id="agujero_x5F_cuello1" class="st2" d="M116.9 422.1h14.2c4.4 0 8.1-3.6 8.1-8.1 0-4.4-3.6-8.1-8.1-8.1h-21.4"/><path id="oreja2" class="st2" d="M95.5 237.7c.5 5.4 5 9.7 10.6 9.7 5.9 0 10.6-4.8 10.6-10.6"/><path id="oreja1" class="st2" d="M95 168.2c-19 .2-34.3 15.7-34.3 34.7 0 19.2 15.6 34.8 34.8 34.7"/><path id="patilla2" class="st2" d="M134.5 175v30.2c0 6-4.7 11.1-10.7 11.3-6.1.1-11.1-4.8-11.1-10.9v-19.2c0-9.9-7.9-17.9-17.7-18.2"/><path id="patilla1" class="st2" d="M174.8 134.5h-14c-14.5 0-26.2 11.7-26.2 26.2V175"/><path id="pelo_x5F_nuca2" class="st2" d="M73.3 292.1c-14.6 15.8-35.5 25.7-58.7 25.7"/><path id="pelo_x5F_nuca1" class="st2" d="M94.4 238c0 20.9-8 39.9-21.1 54.1"/><path id="iris_x5F_human" class="st2" d="M250.5 198c-11.7 0-21.2-9.5-21.2-21.2s9.5-21.2 21.2-21.2 21.2 9.5 21.2 21.2-9.5 21.2-21.2 21.2"/><path id="pelo7" class="st2" d="M143.2 81c-7.7 5.2-16.9 8.3-26.9 8.3"/><path id="pelo6" class="st2" d="M162.1 54.6c-3.1 10.9-9.9 20.1-19 26.4"/><path id="pelo3" class="st2" d="M15.4 287.4c0-32 25.9-57.9 57.9-57.9"/><path id="pelo2" class="st2" d="M116.5 89.4c-26.3 0-47.7 21.3-47.7 47.7v43"/><path id="pelop5" class="st2" d="M126.4 67.2c-31.8 0-57.7 25.8-57.7 57.7v14.9"/><path id="pelo0" class="st2" d="M126.1 67.2c31.5 0 57.1-25.2 57.7-56.6"/></g></svg>