<svg width="247" height="28" viewBox="0 0 247 28" xmlns="http://www.w3.org/2000/svg" xmlns:xlink="http://www.w3.org/1999/xlink"><title>HerraizSoto logotipo</title><defs><path id="a" d="M0 .537v26.79h16.614V.538H0z"/><path id="c" d="M6.13.094H.062v6.068H6.13V.094z"/><path id="e" d="M0 28.906h246.818V1H0z"/></defs><g transform="translate(0 -1)" fill="none" fill-rule="evenodd"><g transform="translate(0 .906)"><mask id="b" fill="#fff"><use xlink:href="#a"/></mask><path d="M9.843 8.64c-1.74 0-3.737.593-4.921 1.999V.537H0v26.79h4.922V16.636c.11-1.998 1.332-3.553 3.404-3.553 2.369 0 3.368 1.59 3.368 3.625v10.62h4.92v-11.47c0-3.995-2.146-7.216-6.771-7.216" fill="#FFF" mask="url(#b)"/></g><path d="M24.273 17.058c.11-1.663 1.517-3.588 4.07-3.588 2.811 0 3.996 1.776 4.07 3.588h-8.14zm3.995-7.585c-4.662 0-8.954 3.774-8.954 9.583 0 6.143 4.402 9.732 9.398 9.732 4.478 0 7.365-2.625 8.29-5.773l-4.108-1.22c-.593 1.628-1.85 2.775-4.144 2.775-2.442 0-4.477-1.739-4.588-4.145h13.023c0-.073.075-.814.075-1.515 0-5.848-3.367-9.438-8.991-9.438zM44.992 12.73v-2.7H40.22v18.204h4.921v-8.326c0-3.922 2.183-5.143 4.7-5.143.443 0 .924.037 1.48.147V9.955a10.884 10.884 0 0 0-1.147-.075c-1.555 0-4.07.444-5.18 2.85M58.645 12.73v-2.7H53.87v18.204h4.921v-8.326c0-3.922 2.183-5.143 4.7-5.143.444 0 .925.037 1.48.147V9.955a10.884 10.884 0 0 0-1.146-.075c-1.556 0-4.072.444-5.181 2.85M77.81 20.871c0 3.219-1.924 4.217-3.996 4.217-1.59 0-2.367-1.035-2.367-2.108 0-1.406.998-2.109 2.257-2.295l4.107-.628v.814zm4.811-4.479c0-3.662-2.146-6.919-7.918-6.919-4.885 0-7.511 3.146-7.809 5.996l4.367.923c.148-1.589 1.333-2.958 3.479-2.958 2.072 0 3.07 1.072 3.07 2.367 0 .629-.332 1.146-1.368 1.295l-4.478.666c-3.034.445-5.439 2.257-5.439 5.513 0 2.85 2.368 5.477 6.253 5.477 2.701 0 4.44-1.258 5.365-2.701 0 .703.075 1.701.186 2.183h4.514c-.11-.629-.222-1.924-.222-2.886v-8.956z" fill="#FFF"/><g transform="translate(85 .906)"><mask id="d" fill="#fff"><use xlink:href="#c"/></mask><path d="M3.096.094C1.43.094.062 1.463.062 3.164c0 1.629 1.369 2.998 3.034 2.998 1.702 0 3.034-1.37 3.034-2.998 0-1.701-1.332-3.07-3.034-3.07" fill="#FFF" mask="url(#d)"/></g><mask id="f" fill="#fff"><use xlink:href="#e"/></mask><path fill="#FFF" mask="url(#f)" d="M85.653 28.234h4.922V10.03h-4.922zM108.558 14.137V10.03h-14.69v4.253h8.399l-8.621 9.622v4.33h15.059v-4.293h-9.028zM119.47 17.207l-2.59-.555c-.998-.185-1.664-.74-1.664-1.629 0-1.035 1.036-1.812 2.33-1.812 2.073 0 2.85 1.369 2.998 2.441l4.108-.924c-.222-1.96-1.961-5.255-7.142-5.255-3.922 0-6.81 2.701-6.81 5.959 0 2.552 1.593 4.662 5.108 5.439l2.405.555c1.406.295 1.96.961 1.96 1.775 0 .963-.775 1.815-2.403 1.815-2.147 0-3.22-1.334-3.331-2.776l-4.218.924c.222 2.072 2.109 5.625 7.585 5.625 4.773 0 7.068-3.035 7.068-5.994 0-2.664-1.813-4.848-5.403-5.588M136.01 24.313c-2.405 0-4.625-1.777-4.625-5.182 0-3.441 2.22-5.18 4.625-5.18s4.625 1.739 4.625 5.18c0 3.442-2.22 5.181-4.625 5.181m0-14.84c-5.44 0-9.547 4.036-9.547 9.659 0 5.587 4.108 9.659 9.547 9.659 5.439 0 9.547-4.072 9.547-9.66 0-5.622-4.108-9.657-9.547-9.657M154.51 4.59h-4.44v2.553c0 1.629-.888 2.886-2.812 2.886h-.926v4.366h3.294v8.474c0 3.514 2.22 5.623 5.773 5.623 1.442 0 2.33-.257 2.774-.443v-4.07c-.26.074-.925.148-1.517.148-1.406 0-2.146-.517-2.146-2.11v-7.622h3.663v-4.366h-3.663v-5.44zM169.42 24.313c-2.404 0-4.624-1.777-4.624-5.182 0-3.441 2.22-5.18 4.625-5.18s4.625 1.739 4.625 5.18c0 3.442-2.22 5.181-4.625 5.181m0-14.84c-5.44 0-9.547 4.036-9.547 9.659 0 5.587 4.108 9.659 9.547 9.659 5.439 0 9.547-4.072 9.547-9.66 0-5.622-4.108-9.657-9.547-9.657M187.087 24.637c-1.573 0-2.513-1.23-2.513-2.416 0-1.112.507-1.94 1.75-2.854l.31-.226 3.618 3.827c-.981 1.009-1.914 1.669-3.165 1.669zm.487-16.141c1.192 0 2.09.842 2.09 1.959 0 .852-.431 1.562-1.361 2.238l-.955.71-.466-.514-.01-.01c-.844-.845-1.29-1.65-1.29-2.326 0-1.413 1.032-2.057 1.992-2.057zm11.853 10.996v-6.117l-6.067 6.339-3.102-3.276.65-.484c2.256-1.681 3.352-3.47 3.352-5.465 0-3.517-2.798-6.07-6.653-6.07-3.21 0-6.621 2.197-6.621 6.265 0 2.167 1.486 3.992 2.6 5.173l.159.173c-2.447 1.83-3.961 3.558-3.961 6.45 0 3.194 2.487 6.427 7.238 6.427 2.224 0 4.245-.922 6.17-2.818l2.27 2.396h6.28l-5.437-5.711 3.122-3.282zM211.188 24.275c-2.517 0-4.662-1.852-4.662-5.145 0-3.293 2.107-5.105 4.624-5.105 2.442 0 3.59 1.553 4.034 3.07l4.403-1.48c-.777-3.07-3.588-6.143-8.547-6.143-5.291 0-9.436 4.035-9.436 9.658 0 5.588 4.218 9.66 9.583 9.66 4.849 0 7.696-3.109 8.511-6.144l-4.329-1.443c-.407 1.406-1.665 3.072-4.181 3.072M230.39 24.313c-2.404 0-4.624-1.777-4.624-5.182 0-3.441 2.22-5.18 4.625-5.18s4.625 1.739 4.625 5.18c0 3.442-2.22 5.181-4.625 5.181m0-14.84c-5.44 0-9.547 4.036-9.547 9.659 0 5.587 4.108 9.659 9.547 9.659 5.439 0 9.547-4.072 9.547-9.66 0-5.622-4.108-9.657-9.547-9.657M243.414 21.758a3.38 3.38 0 0 0-3.367 3.367 3.378 3.378 0 0 0 3.367 3.367c1.887 0 3.404-1.515 3.404-3.367 0-1.85-1.517-3.367-3.404-3.367"/></g></svg>
